<?xml version="1.0" encoding="utf-8"?>
<!-- Generator: Adobe Illustrator 22.1.0, SVG Export Plug-In . SVG Version: 6.00 Build 0)  -->
<svg version="1.1" id="圖層_1" xmlns="http://www.w3.org/2000/svg" xmlns:xlink="http://www.w3.org/1999/xlink" x="0px" y="0px"
	 viewBox="0 0 142 50" style="enable-background:new 0 0 142 50;" xml:space="preserve">
<style type="text/css">
	.st0{opacity:0.8028;}
	.st1{enable-background:new    ;}
	.st2{fill:#C69A6C;}
</style>
<title>Logo@3x</title>
<g id="UI-System" class="st0">
	<g id="Footer" transform="translate(-80.000000, -64.000000)">
		<g id="Logo" transform="translate(80.000000, 64.000000)">
			<g class="st1">
				<path class="st2" d="M72.1,6.8l1.2-1.5c0.9,0.7,1.6,1.3,2.2,1.8c0,0.2-0.2,0.3-0.5,0.3h-7.1v3.4h3.8l0.5-0.5
					c-1-0.8-2-1.5-3.1-2.1l0.1-0.2c2.7,0.1,4.6,0.7,5.5,1.8c0.5,0.5,0.6,1,0.4,1.5c-0.2,0.4-0.5,0.6-1,0.5c0,0-0.1,0-0.1,0v9
					c0,0.8-0.2,1.3-0.5,1.7c-0.3,0.4-1,0.6-2,0.7c-0.1-0.7-0.2-1.2-0.4-1.4c-0.3-0.3-0.7-0.5-1.4-0.6v-0.3c1,0.1,1.7,0.1,1.9,0.1
					c0.2,0,0.3-0.1,0.3-0.4v-9.2h-4v6.5c0,0.2,0,1.7,0.1,4.4c-0.1,0.1-0.3,0.3-0.6,0.4c-0.3,0.2-0.7,0.2-1.1,0.2
					c-0.2,0-0.3,0-0.4-0.1c-0.1-0.1-0.2-0.2-0.2-0.3c0.1-2.1,0.2-3.8,0.2-4.9v-5.3c-0.1,0.2-0.3,0.3-0.6,0.3
					c-0.2,0.4-0.4,0.7-0.5,0.9c0.5,0.5,0.8,0.9,0.7,1.4c-0.1,0.3-0.3,0.5-0.6,0.5c-0.1,0-0.3,0-0.5-0.1c-0.1-0.2-0.2-0.4-0.4-0.7
					c-0.5,0.6-1.1,1.1-1.6,1.5L62,15.8c0.4-0.6,0.8-1.3,1.2-2.2c-0.3-0.3-0.6-0.7-1.1-1l0.1-0.2c0.5,0.1,0.9,0.2,1.3,0.3
					c0.1-0.4,0.3-0.9,0.4-1.4l1.9,0.7v-0.9h-3.9V18c0,0.2,0,1.7,0.1,4.4c-0.1,0.1-0.3,0.3-0.6,0.4C61.1,23,60.8,23,60.3,23
					c-0.2,0-0.3,0-0.4-0.1c-0.1-0.1-0.2-0.2-0.2-0.3c0.1-2,0.2-3.6,0.2-4.9v-6.5c-0.6,0.2-1.1,0.4-1.4,0.5l-0.2-0.2
					c0.8-0.5,1.7-1.2,2.5-2c0.9-0.8,1.5-1.5,2-2.2l2.2,1.4C65,8.9,64.8,9,64.5,8.9c-0.6,0.5-1.5,1-2.8,1.6l0.4,0.2l3.7,0.1V7.3H61
					c-0.8,0-1.6,0-2.2,0.1l-0.5-1c1.1,0.2,2.1,0.3,3,0.3H72.1z M62.1,17.1l0.2-0.2c0.4,0.1,0.8,0.2,1.3,0.3l0.3-1.4l2,0.7
					c-0.1,0.3-0.3,0.4-0.7,0.3c-0.2,0.5-0.4,0.8-0.5,1c0.6,0.5,0.8,0.9,0.7,1.4c-0.1,0.3-0.2,0.5-0.5,0.5c-0.2,0-0.3,0-0.5-0.1
					c-0.1-0.1-0.2-0.4-0.4-0.7c-0.6,0.8-1.2,1.4-1.8,1.8L62,20.8c0.5-0.7,0.9-1.6,1.2-2.6C62.9,17.8,62.5,17.4,62.1,17.1z
					 M69.7,15.9l2,0.6c-0.1,0.2-0.3,0.4-0.7,0.4c-0.1,0.2-0.2,0.5-0.4,0.9c0.6,0.5,0.9,1,0.8,1.5c-0.1,0.3-0.3,0.5-0.6,0.6
					c-0.2,0-0.4,0-0.6-0.1c-0.1-0.2-0.2-0.5-0.4-0.7c-0.5,0.7-1.1,1.3-1.8,1.8l-0.3-0.2c0.5-0.7,0.9-1.6,1.3-2.6
					c-0.3-0.4-0.7-0.7-1.1-1l0.2-0.2c0.4,0.1,0.8,0.2,1.2,0.3C69.6,16.5,69.7,16.1,69.7,15.9z M68.1,16l-0.2-0.2
					c0.5-0.7,0.9-1.4,1.2-2.3c-0.3-0.3-0.7-0.7-1.1-1l0.2-0.2c0.4,0.1,0.8,0.2,1.2,0.3c0.2-0.6,0.3-1,0.3-1.3l2,0.7
					c-0.1,0.3-0.3,0.4-0.7,0.4c-0.1,0.2-0.3,0.5-0.5,0.9c0.6,0.5,0.8,0.9,0.8,1.4c-0.1,0.4-0.3,0.5-0.6,0.6c-0.2,0-0.3,0-0.5-0.1
					c-0.1-0.2-0.2-0.5-0.4-0.8C69.4,15.1,68.8,15.6,68.1,16z"/>
				<path class="st2" d="M91.3,7.7l1.2-1.2l2.1,1.9c-0.2,0.2-0.5,0.3-1,0.3c-1.1,1.4-2.3,2.5-3.8,3.4l2.5,0.6
					c-0.1,0.3-0.4,0.4-1,0.4c-0.3,0.3-0.8,0.7-1.5,1.3h3.3l1.2-1.2l2.1,1.9c-0.1,0.2-0.4,0.3-0.9,0.3c-1.5,2.3-3.4,4-5.8,5.2
					s-5.5,2-9.3,2.4l-0.1-0.3c3.6-0.9,6.5-2.1,8.7-3.6c-0.3,0.1-0.7,0.1-1.1-0.1c-0.3-0.8-0.8-1.5-1.8-2.3c-1.4,0.7-3,1.3-4.8,1.8
					l-0.1-0.2c1.4-0.6,2.6-1.4,3.9-2.4s2.3-1.9,3.1-2.9c-2.2,1.1-4.9,1.9-8.1,2.3L80.1,15c5.2-1.6,8.8-3.9,11-6.8h-3.7
					c-0.9,0.6-1.5,1-1.7,1.1c1.1,0,1.8,0.4,2.1,1c0.2,0.4,0.1,0.8-0.2,1.1c-0.3,0.3-0.7,0.4-1.2,0.2c-0.3-0.6-0.8-1.3-1.7-1.9
					c-1.3,0.7-2.7,1.2-4.1,1.6l-0.1-0.2c1.4-0.7,2.7-1.6,3.9-2.7c1.2-1.1,2.1-2.1,2.8-3.1l3.2,0.8c-0.1,0.2-0.4,0.4-1,0.4
					c-0.6,0.6-1.1,1-1.3,1.1H91.3z M93.1,14.9h-3.9c-0.4,0.3-1.1,0.7-2,1.3c0.6,0.1,1.1,0.2,1.5,0.4c0.4,0.2,0.7,0.5,0.8,0.7
					c0.1,0.3,0.2,0.5,0.2,0.8s-0.1,0.5-0.3,0.7C91,17.8,92.2,16.4,93.1,14.9z"/>
			</g>
			<g>
			</g>
			<g class="st1">
				<path class="st2" d="M65.7,34.1l0.9-1l1.9,1.5c-0.1,0.2-0.4,0.3-0.7,0.4v3.7c0,0-0.1,0.1-0.3,0.2c-0.2,0.1-0.4,0.2-0.7,0.2
					s-0.5,0.1-0.7,0.1h-0.3v-0.6H62c0,0.4-0.1,0.8-0.2,1.2l1.2,0.5h2.8l0.9-1l2,1.5c-0.2,0.2-0.4,0.3-0.7,0.4c0,0.2,0,1.4,0.1,3.7
					c-0.1,0.1-0.3,0.2-0.7,0.4c-0.4,0.1-0.8,0.2-1.1,0.2c-0.3,0-0.4-0.1-0.4-0.4c0-0.3,0.1-0.6,0.1-0.8h-3.2c0,0.4,0,0.6,0.1,0.8
					c0,0.1-0.2,0.3-0.5,0.4s-0.7,0.2-1.1,0.2c-0.1,0-0.3,0-0.3-0.1c-0.1-0.1-0.1-0.2-0.1-0.3C60.9,44,61,43,61,42.4
					c-0.6,1.1-1.4,2-2.4,2.8l-0.2-0.2c0.7-1.1,1.2-2.4,1.4-3.8c0.2-1.4,0.3-2.9,0.3-4.6v-2.8c-0.6,0.4-1.2,0.8-1.8,1.1l-0.1-0.2
					c0.9-0.9,1.7-1.9,2.4-3.2c0.7-1.3,1.3-2.4,1.6-3.5l2.9,0.6c-0.1,0.2-0.3,0.4-0.7,0.4c2.1,0.4,3.4,1.1,3.9,2.1
					c0.3,0.6,0.3,1.1-0.1,1.5c-0.3,0.4-0.7,0.5-1.1,0.3c-0.1,0-0.2-0.1-0.3-0.2c-0.1-0.6-0.4-1.2-0.9-1.8c-0.5-0.7-1-1.2-1.6-1.7
					c-0.7,1.1-1.5,2.1-2.4,3h2.1L65,31c0.7,0.5,1.3,1,1.7,1.4c-0.1,0.2-0.2,0.3-0.5,0.3h-4.4l-0.1-0.3c-0.5,0.4-0.8,0.7-1.1,0.9
					l1.8,0.7H65.7z M62.1,38.1h3.8v-1.4h-3.8C62.1,37.1,62.1,37.6,62.1,38.1z M65.9,34.6h-3.8v1.5l3.8,0.1V34.6z M62.9,43.7h3.2
					v-2.9h-3.2V43.7z M71.2,30.4v6.2c0,0.2,0,1.7,0.1,4.4c-0.1,0.2-0.3,0.3-0.6,0.5c-0.3,0.1-0.7,0.2-1,0.2c-0.2,0-0.3,0-0.4-0.1
					s-0.2-0.2-0.2-0.3c0.1-2,0.2-3.6,0.2-4.9V33c0-1.3-0.1-2.5-0.3-3.5l2.8,0.3C71.8,30.2,71.6,30.3,71.2,30.4z M74.6,29.2v14
					c0,0.8-0.2,1.4-0.5,1.8c-0.3,0.4-1,0.6-2.1,0.7c-0.1-0.7-0.2-1.2-0.4-1.5c-0.3-0.4-0.8-0.6-1.5-0.7v-0.3
					c1.2,0.1,1.9,0.1,2.2,0.1c0.2,0,0.4-0.1,0.4-0.3V31.7c0-1.3-0.1-2.4-0.3-3.5l2.9,0.4C75.3,29,75,29.1,74.6,29.2z"/>
				<path class="st2" d="M92.8,29.9l1.1-1.4c0.8,0.6,1.5,1.2,2,1.7c0,0.2-0.2,0.3-0.5,0.3h-4.5L93,31c-0.1,0.3-0.3,0.4-0.7,0.4
					c-0.5,0.5-1.2,1-2,1.6h3.2l1.1-1.4c0.8,0.6,1.5,1.2,2.1,1.6c0,0.2-0.2,0.3-0.5,0.3H82.7c-0.8,0-1.5,0.1-2.2,0.2l-0.5-1
					c1.1,0.2,2.2,0.3,3,0.3h2.4c0,0-0.1-0.1-0.3-0.3c0-0.7-0.1-1.4-0.5-2.2h-0.9c-0.8,0-1.6,0-2.2,0.1l-0.5-1c1.1,0.2,2.1,0.3,3,0.3
					l3.4,0.1v-0.1c0-0.7-0.1-1.3-0.3-2l3.1,0.3c0,0.3-0.3,0.5-0.7,0.5v1.1H92.8z M82.8,40.7H83c0.2,0.7,0.3,1.4,0.2,2
					s-0.2,1-0.5,1.4c-0.3,0.3-0.6,0.6-0.9,0.7c-0.3,0.1-0.7,0.2-1,0c-0.3-0.1-0.5-0.4-0.6-0.7c-0.1-0.7,0.2-1.1,0.9-1.4
					c0.4-0.1,0.8-0.4,1.1-0.8C82.6,41.6,82.8,41.2,82.8,40.7z M91.5,34.7l1-1.1l2,1.6c-0.1,0.2-0.4,0.3-0.7,0.4c0,0.5,0,1.8,0.1,3.9
					c-0.1,0.1-0.3,0.3-0.7,0.4c-0.4,0.2-0.8,0.2-1.1,0.2c-0.3,0-0.4-0.1-0.4-0.4c0-0.2,0.1-0.4,0.1-0.5H85c0,0.2,0,0.3,0.1,0.3
					c0,0.1-0.2,0.3-0.6,0.5s-0.8,0.3-1.2,0.3c-0.3,0-0.4-0.1-0.4-0.4c0.1-1.1,0.1-2,0.1-2.8c0-1.3-0.1-2.4-0.3-3.5l2.5,1H91.5z
					 M86.5,41.1v2.1c0,0.1,0,0.2,0.1,0.2c0.1,0,0.3,0.1,0.6,0.1h2c0.9,0,1.5,0,1.6,0c0.2,0,0.4-0.1,0.5-0.2c0.2-0.3,0.5-0.9,0.8-1.8
					h0.2l0.1,1.8c0.3,0.1,0.5,0.2,0.6,0.3c0.1,0.1,0.1,0.3,0.1,0.5c0,0.5-0.3,0.8-0.9,1s-1.7,0.3-3.3,0.3h-2.2c-1,0-1.6-0.1-1.9-0.3
					s-0.5-0.7-0.5-1.4c0-1.2-0.1-2.3-0.3-3.3l2.9,0.3C87,40.9,86.8,41.1,86.5,41.1z M91.7,35.2H85v1.5l6.6,0.1V35.2z M85,38.8h6.6
					v-1.6H85V38.8z M90.1,30.5h-4.7c0.6,0.2,1.1,0.4,1.4,0.8s0.4,0.6,0.3,0.9c-0.1,0.3-0.2,0.5-0.5,0.7h3.2
					C89.9,32.2,90,31.4,90.1,30.5z M86.7,40.2l0.1-0.1c1.7-0.1,2.8,0.2,3.3,0.9c0.3,0.5,0.4,0.9,0.1,1.4c-0.2,0.4-0.6,0.6-1.1,0.4
					c-0.1,0-0.2-0.1-0.3-0.1c-0.2-0.4-0.5-0.9-0.9-1.3C87.6,40.8,87.2,40.4,86.7,40.2z M92.4,40.8l0.1-0.1c1.9,0.3,3.2,1,3.8,2
					c0.4,0.6,0.4,1.2,0.1,1.7c-0.3,0.4-0.7,0.6-1.2,0.4c-0.1,0-0.3-0.1-0.4-0.2c-0.1-0.6-0.4-1.3-0.9-2
					C93.4,41.9,92.9,41.3,92.4,40.8z"/>
				<path class="st2" d="M106.7,31.8l0.9-1.3c0.7,0.6,1.3,1.1,1.7,1.5c0,0.2-0.2,0.3-0.5,0.3h-5c-0.8,0-1.6,0-2.2,0.1l-0.5-1
					c1.1,0.2,2.1,0.3,3,0.3H106.7z M106,39.2l0.9-1l1.9,1.5c-0.1,0.2-0.4,0.3-0.7,0.4c0,0.2,0,1.6,0.1,4.2c-0.1,0.1-0.3,0.3-0.7,0.4
					s-0.7,0.2-1,0.2c-0.3,0-0.4-0.1-0.4-0.4c0-0.3,0.1-0.6,0.1-0.8h-2c0,0.5,0,0.8,0.1,1.1c0,0.1-0.2,0.3-0.6,0.5
					c-0.4,0.2-0.7,0.2-1.1,0.2c-0.1,0-0.2,0-0.3-0.1c-0.1-0.1-0.1-0.2-0.1-0.3c0.1-1.5,0.1-2.7,0.1-3.5c0-1.3-0.1-2.4-0.3-3.5
					l2.3,0.9H106z M105.8,34.2l0.9-1.2c0.7,0.6,1.2,1,1.6,1.5c0,0.2-0.2,0.3-0.5,0.3h-3.1c-0.8,0-1.6,0-2.2,0.1l-0.5-1
					c1.1,0.2,2.1,0.3,3,0.3H105.8z M105.7,36.7l0.9-1.2c0.7,0.6,1.2,1,1.6,1.5c0,0.2-0.2,0.3-0.5,0.3h-3.1c-0.8,0-1.6,0-2.2,0.1
					l-0.5-1c1.1,0.2,2.2,0.3,3,0.3H105.7z M105.7,29.4l1-1.3c0.7,0.6,1.3,1.1,1.7,1.5c0,0.2-0.2,0.3-0.5,0.3h-3
					c-0.8,0-1.6,0-2.2,0.1l-0.5-1c1.1,0.2,2.1,0.3,3,0.3H105.7z M104.2,43.2h2v-3.5h-2V43.2z M115.5,35.4l1.9,1.8
					c-0.1,0.2-0.4,0.3-0.7,0.3c-0.6,1.6-1.4,3.1-2.5,4.3c1.3,0.8,2.8,1.3,4.4,1.7l0,0.2c-0.9,0.2-1.5,0.8-1.8,1.9
					c-1.6-0.7-2.9-1.6-3.8-2.6c-1.5,1.2-3.3,2.1-5.5,2.6l-0.1-0.2c1.8-0.9,3.4-2.1,4.6-3.6c-0.8-1.3-1.5-2.9-1.9-4.7
					c-0.4,0-0.8,0-1.1,0.1l-0.5-1c1.1,0.2,2.1,0.3,3,0.3h2.8L115.5,35.4z M113.5,29.4l1-1.1l1.7,1.5c-0.1,0.1-0.3,0.2-0.6,0.3V33
					c0,0.1,0,0.2,0.1,0.2c0,0,0.1,0,0.2,0h0.8c0.1,0,0.2-0.1,0.3-0.2c0.1-0.2,0.3-0.9,0.7-2.1h0.2l0.1,2.1c0.3,0.2,0.5,0.4,0.5,0.8
					c0,0.8-0.8,1.2-2.3,1.2h-0.9c-0.7,0-1.1-0.1-1.2-0.3s-0.3-0.7-0.3-1.3v-3.5h-1.9v0.9c0,2.5-1.1,4.3-3.3,5.4l-0.1-0.2
					c1-1.2,1.5-2.9,1.5-5.2c0-0.8-0.1-1.6-0.3-2.4l2.6,0.9H113.5z M114.4,37.1h-4c0.5,1.4,1.3,2.6,2.4,3.6
					C113.5,39.6,114,38.4,114.4,37.1z"/>
				<path class="st2" d="M128.4,31.8l0.9-1.3c0.7,0.6,1.3,1.1,1.8,1.5c0,0.2-0.2,0.3-0.5,0.3h-5.2c-0.8,0-1.6,0-2.2,0.1l-0.5-1
					c1.1,0.2,2.1,0.3,3,0.3H128.4z M129.7,40.1L129.7,40.1c0,0.2,0,1.7,0.1,4.4c-0.1,0.1-0.3,0.3-0.7,0.4c-0.4,0.2-0.7,0.2-1.1,0.2
					c-0.3,0-0.4-0.1-0.4-0.4c0-0.3,0.1-0.5,0.1-0.7h-2.2c0,0.4,0,0.6,0.1,0.8c0,0.1-0.2,0.3-0.6,0.5c-0.4,0.2-0.7,0.3-1.1,0.3
					c-0.1,0-0.2,0-0.3-0.1c-0.1-0.1-0.1-0.2-0.1-0.3c0.1-1.5,0.1-2.7,0.1-3.5c0-1.3-0.1-2.4-0.3-3.5l2.3,0.9h1.9l0.9-1.1l2,1.6
					C130.4,39.9,130.1,40.1,129.7,40.1z M127.5,34.3l0.9-1.3c0.7,0.6,1.3,1.1,1.7,1.5c0,0.2-0.2,0.3-0.5,0.3h-3.5
					c-0.8,0-1.6,0-2.2,0.1l-0.5-1c1.1,0.2,2.2,0.3,3,0.3H127.5z M127.5,36.7l0.9-1.3c0.7,0.6,1.3,1.1,1.7,1.5c0,0.2-0.2,0.3-0.5,0.3
					h-3.5c-0.8,0-1.5,0.1-2.2,0.2l-0.5-1c1.1,0.2,2.2,0.3,3,0.3H127.5z M127.4,29.5l0.9-1.3c0.7,0.6,1.3,1.1,1.7,1.5
					c0,0.2-0.2,0.3-0.5,0.3h-3.4c-0.8,0-1.6,0-2.2,0.1l-0.5-1c1.1,0.2,2.1,0.3,3,0.3H127.4z M125.6,43.6h2.2v-3.8h-2.2V43.6z
					 M136,29v5.6h1l1.1-1.6c0.8,0.7,1.4,1.3,1.9,1.8c0,0.2-0.2,0.3-0.5,0.3H136v5.2c0,0.2,0,1.7,0.1,4.4c-0.1,0.2-0.3,0.4-0.7,0.6
					c-0.4,0.2-0.8,0.3-1.2,0.3c-0.4,0-0.6-0.1-0.6-0.4c0.1-2,0.2-3.6,0.2-4.9v-5.2h-1c-0.8,0-1.6,0-2.2,0.1l-0.5-1
					c1.1,0.2,2.1,0.3,3,0.3l0.6,0.1v-6.6l2.9,0.3C136.7,28.8,136.4,29,136,29z"/>
			</g>
		</g>
		<path class="st2" d="M113.8,85.7c0,1-0.1,2-0.2,3c0,0.3-0.1,0.5-0.1,0.7c0,0.3-0.1,0.5-0.1,0.7l-0.2,0.7l-0.2,0.7
			c-0.6,1.9-1.4,3.7-2.5,5.4c-2.1,3.4-5,6.1-8.3,8.3c-3.3,2.2-6.9,3.7-10.7,4.8c-3.7,1.1-7.5,1.8-11.3,2.2c3.8-0.6,7.6-1.4,11.2-2.6
			c3.7-1.2,7.2-2.8,10.4-5c3.1-2.2,5.9-5,7.8-8.3c1.9-3.3,3-7,2.9-10.8c-0.1-3.8-1.3-7.5-3.3-10.6c-1-1.5-2.3-2.9-3.8-4
			c-1.5-1.1-3.1-2-4.8-2.5c-0.9-0.3-1.8-0.4-2.6-0.5c-0.9-0.1-1.8,0-2.7,0.1c-0.8,0.1-1.6,0.3-2.3,0.6c2-0.6,4.1-0.6,6.1-0.1
			c1.7,0.4,3.2,1.1,4.6,2.1c1.4,1,2.6,2.1,3.5,3.5c2,2.7,3.1,5.9,3.3,9.1c0,0.8,0,1.6,0,2.4c0,0.2,0,0.4-0.1,0.6l0,0.3l-0.1,0.3
			c0,0.2-0.1,0.4-0.1,0.6l-0.1,0.6c-0.4,1.6-0.9,3.1-1.7,4.5c-1.5,2.8-3.7,5.3-6.3,7.1c-1.3,0.9-2.7,1.7-4.1,2.3
			c-1.4,0.6-2.9,1.1-4.4,1.5c-3,0.8-6.1,1.2-9.2,1.3c3.1-0.3,6.2-0.8,9.1-1.7c1.5-0.5,2.9-1,4.3-1.7c1.4-0.6,2.7-1.4,3.9-2.3
			c2.4-1.9,4.4-4.3,5.7-7c1.3-2.7,1.9-5.7,1.6-8.7c-0.3-2.9-1.4-5.8-3.3-8c-1.8-2.3-4.4-3.9-7.1-4.5c-0.6-0.1-1.2-0.2-1.8-0.2
			c0,0,0,0,0.1,0c1.3,0.2,2.6,0.6,3.8,1.2s2.2,1.4,3.1,2.3c1.8,1.9,3,4.2,3.4,6.7c0.1,0.6,0.2,1.2,0.2,1.9c0,0.6,0,1.2-0.1,1.9
			c-0.1,1.2-0.4,2.4-0.9,3.6c-0.9,2.3-2.3,4.4-4.2,5.9c-0.9,0.8-2,1.4-3.1,1.9c-1.1,0.5-2.3,0.8-3.4,1.1c-2.3,0.5-4.7,0.6-7,0.3
			c2.3,0.1,4.7-0.1,6.9-0.7c1.1-0.3,2.2-0.7,3.2-1.2c1-0.5,2-1.2,2.8-1.9c3.3-3.1,4.8-8,3.8-12.3c-0.5-2.1-1.6-4.1-3.2-5.5
			c-0.6-0.5-1.2-1-1.9-1.4c1.4,1,2.6,2.3,3.3,3.9c0.2,0.4,0.3,0.9,0.5,1.3c0.1,0.4,0.2,0.9,0.3,1.4c0.1,0.9,0.1,1.8-0.1,2.7
			c-0.3,1.8-1,3.4-2.1,4.8c-0.3,0.3-0.6,0.7-0.9,0.9c-0.3,0.3-0.7,0.5-1.1,0.8c-0.4,0.2-0.8,0.4-1.2,0.6c-0.2,0.1-0.4,0.1-0.6,0.2
			c-0.2,0-0.4,0.1-0.6,0.1c-1.7,0.3-3.5-0.1-4.8-1c1.5,0.8,3.2,1,4.7,0.6c0.2,0,0.4-0.1,0.6-0.2c0.2-0.1,0.4-0.1,0.5-0.2
			c0.4-0.2,0.7-0.4,1-0.6c0.3-0.2,0.6-0.5,0.9-0.8c0.3-0.3,0.5-0.6,0.7-0.9c0.9-1.3,1.3-2.8,1.4-4.4c0-0.8,0-1.5-0.2-2.3
			c-0.1-0.4-0.2-0.7-0.3-1.1c-0.1-0.3-0.3-0.7-0.5-1c-0.7-1.3-1.8-2.3-3.1-2.9c-0.6-0.3-1.3-0.5-2-0.6c-0.7-0.1-1.4-0.1-2,0.1
			c-0.6,0.1-1.2,0.4-1.7,0.8c-0.5,0.4-0.9,0.8-1.2,1.3c-0.1,0.2-0.2,0.5-0.3,0.7c0,0.2-0.1,0.5,0,0.7c0,0.5,0.3,0.8,0.5,0.9
			c0.1,0.1,0.2,0.1,0.3,0.2c0.1,0,0.2,0.1,0.3,0.1c0.2,0,0.3,0.1,0.5,0.1c0.1,0,0.2,0,0.3,0c0.1,0,0.2,0,0.3,0
			c0.1,0,0.2-0.1,0.3-0.2c0-0.1,0-0.2,0-0.2c0-0.1-0.1-0.2-0.2-0.2c-0.1-0.1-0.3-0.1-0.5,0c-0.2,0-0.3,0.2-0.4,0.3
			c-0.1-0.2,0-0.5,0.1-0.7c0.1-0.1,0.1-0.2,0.2-0.2c0,0-0.1,0-0.1,0c-0.2,0-0.5,0.2-0.6,0.5c0-0.3,0.2-0.6,0.4-0.8
			c0.1-0.1,0.3-0.2,0.4-0.2c-0.1,0-0.3,0-0.4,0c-0.3,0.1-0.6,0.3-0.8,0.6c0.1-0.4,0.4-0.7,0.7-0.9c0.2-0.1,0.5-0.2,0.8-0.2
			c-0.1,0-0.1,0-0.2,0c-0.1,0-0.1,0-0.2,0c-0.1,0-0.1,0-0.2,0c-0.1,0-0.2,0-0.3,0c-0.4,0.1-0.8,0.3-1.1,0.7c0.2-0.4,0.5-0.8,1-1
			c0.1-0.1,0.2-0.1,0.4-0.1c0.1,0,0.1,0,0.2,0c0.1,0,0.1,0,0.2,0c0.3,0,0.5,0,0.8,0.1c0.5,0.1,1,0.4,1.3,0.8
			c0.3,0.4,0.5,0.8,0.6,1.3c0.1,0.5,0.1,0.9,0.1,1.3c-0.1,0.4-0.2,0.8-0.4,1.2c-0.4,0.7-1,1.3-1.6,1.7c-0.6,0.4-1.3,0.6-2,0.8
			c-1.4,0.3-2.9,0-4.3-0.7c-0.7-0.4-1.4-0.9-2-1.6c-0.6-0.7-1.2-1.6-1.6-2.7c-0.4-1.1-0.5-2.3-0.4-3.4c0.1-1.1,0.4-2.2,0.8-3.2
			c0.4-1,1-1.9,1.7-2.8c0.7-0.8,1.5-1.6,2.4-2.2c1.8-1.2,3.8-1.9,5.9-2.2c2.1-0.3,4.2-0.1,6.2,0.6c2,0.6,3.8,1.7,5.4,3
			c1.6,1.3,2.9,2.8,4,4.5C112.7,77.7,113.8,81.7,113.8,85.7z"/>
	</g>
</g>
</svg>
